<svg xmlns="http://www.w3.org/2000/svg" xmlns:xlink="http://www.w3.org/1999/xlink" viewBox="0 0 464.745 338.814"><defs><linearGradient id="a"><stop offset="0" stop-color="#00dce2"/><stop offset="1" stop-color="#97f0ff"/></linearGradient><linearGradient id="b" x1="431.3338" x2="400.66592" y1="531.39313" y2="386.12817" gradientTransform="translate(129.453 193.74)" gradientUnits="userSpaceOnUse" xlink:href="#a"/></defs><path fill="url(#b)" fill-rule="evenodd" d="M132.042 433.463c23.84-32.316 103.542-15.624 130.056.606 89.595 44.02 169.113-19.05 186.402-33.707 42.52-37.92 60.763-37.33 75.655-30.124 4.45 2.154 10.795 11.465 14.408 12.5 98.104 111.17-186.007 131.629-317.798 102.342-60.452-13.433-102.376-33.11-88.723-51.617z" transform="translate(-111.737 -176.023)"/><g fill="#2e2e2c"><path d="M357.64 245.256c-2.157.003-4.043.32-5.598.97-1.555.652-2.779 1.63-3.645 2.858-.867 1.227-1.376 2.698-1.53 4.306-.153 1.607.049 3.348.582 5.126.58 1.93 1.307 3.55 2.192 4.91a13.088 13.088 0 0 0 3.107 3.348c1.182.894 2.504 1.59 3.932 2.165s2.962 1.03 4.566 1.444l.553.146.548.15.544.152.54.155c.983.296 1.843.587 2.584.913.74.325 1.365.677 1.87 1.086.507.41.895.875 1.153 1.453.258.577.387 1.264.358 2.152a5.951 5.951 0 0 1-.47 2.131 6.491 6.491 0 0 1-1.208 1.864 7.522 7.522 0 0 1-1.858 1.459 8.952 8.952 0 0 1-2.42.918c-1.06.24-2.006.293-2.854.183a5.78 5.78 0 0 1-2.269-.79c-.672-.406-1.268-.943-1.812-1.577s-1.037-1.364-1.507-2.155l-1.985 1.808-2.038 1.863-2.09 1.915-2.142 1.959c.653 1.395 1.473 2.662 2.469 3.741a11.564 11.564 0 0 0 3.521 2.618c1.353.647 2.886 1.049 4.597 1.159 1.712.11 3.602-.071 5.668-.571 2.114-.512 4.089-1.296 5.866-2.332 1.776-1.035 3.354-2.321 4.663-3.833a16.57 16.57 0 0 0 3.054-5.188 17.519 17.519 0 0 0 1.047-6.318c-.047-2.03-.393-3.575-.958-4.93-.564-1.354-1.35-2.504-2.325-3.564-.975-1.06-2.123-1.878-3.477-2.66a23.428 23.428 0 0 0-4.755-2.067l-.547-.167-.554-.16-.56-.157-.57-.14a34.934 34.934 0 0 1-2.614-.736c-.76-.254-1.408-.528-1.952-.848-.544-.32-.983-.687-1.33-1.128-.349-.441-.606-.957-.793-1.578a3.249 3.249 0 0 1-.124-1.428c.068-.442.244-.843.525-1.183.282-.34.667-.617 1.151-.817.484-.2 1.065-.321 1.733-.354a8.835 8.835 0 0 1 1.843.09 7.096 7.096 0 0 1 1.677.485 7.75 7.75 0 0 1 1.551.897c.503.37 1.001.815 1.514 1.346l1.163-1.306 1.08-1.395 1.126-1.449 1.303-1.465c-.992-1.037-1.863-1.841-2.77-2.497-.907-.656-1.869-1.17-3.04-1.614a20.581 20.581 0 0 0-3.913-1.033c-1.382-.225-2.43-.278-4.371-.33 0 0 1.894-.003 0 0zm-35.9 4.178l2.958 8.924 2.484 8.916 1.615 9.05.647 9.273a9.355 9.355 0 0 1-.438 3.521c-.31.977-.768 1.768-1.352 2.408-.585.64-1.295 1.13-2.115 1.506-.821.377-1.753.64-2.781.828-1.073.196-1.991.195-2.8.043a5.873 5.873 0 0 1-2.146-.868c-.635-.412-1.206-.934-1.755-1.523-.55-.59-1.077-1.247-1.626-1.93l-2.482 1.763-2.427 1.737-2.358 1.71-2.276 1.68c-1.22.901 1.793 2.467 2.93 3.515a15.408 15.408 0 0 0 3.934 2.65c1.492.697 3.171 1.185 5.068 1.395 1.898.21 4.013.141 6.381-.281 2.622-.468 5.041-1.253 7.208-2.352 2.168-1.099 4.086-2.511 5.705-4.232a19.5 19.5 0 0 0 3.883-6.069c.94-2.32 1.683-4.968 1.512-7.8l-.473-9.292-1.59-8.98-2.623-8.769-3.26-8.728-2.89.48-2.94.48-2.981.476z"/><g style="line-height:125%;-inkscape-font-specification:Roboto;text-align:center"><path stroke-width=".9375px" d="M415.596 258.766c.623 3.1-.246 5.719-.618 8.353-.372 2.635-1.17 6.29-2.394 8.316a15.812 15.812 0 0 1-4.77 5.042c-1.96 1.318-4.225 2.221-6.793 2.71-2.606.496-5.09.497-7.453.002-2.348-.517-4.481-2.815-6.399-4.242-1.899-1.431-3.53-3.299-4.896-5.603-1.364-2.303-2.358-5.006-2.981-8.106l-.33-1.643c-.623-3.1-.758-5.966-.404-8.597.372-2.634 1.16-4.962 2.365-6.984a16.084 16.084 0 0 1 4.799-5.048c1.975-1.34 4.265-2.258 6.87-2.754 2.569-.489 5.027-.475 7.376.042a16.271 16.271 0 0 1 6.37 2.922c1.918 1.427 3.56 3.293 4.924 5.597 1.383 2.3 3.38 5.25 4.004 8.35zm-10.236.184c-.81-4.028-3.092-7.203-4.859-9.025-1.752-1.845-3.875-2.53-6.37-2.055-2.605.496-4.343 1.916-5.215 4.26-.857 2.322-.88 5.497-.071 9.526l.341 1.699c.799 3.973 2.068 8.228 3.81 10.113 1.74 1.885 3.904 2.581 6.491 2.089 2.476-.471 4.166-1.892 5.071-4.261.902-2.389 1.946-6.656 1.143-10.647z" aria-label="O" font-family="Roboto" font-size="57.97445297px" font-weight="400" letter-spacing="0" style="-inkscape-font-specification:Roboto" text-anchor="middle" word-spacing="0"/></g><g style="line-height:125%;-inkscape-font-specification:Roboto;text-align:center"><path stroke-width=".9375px" d="M424.885 237.162l.771 3.517c.824-1.63 1.9-2.988 3.23-4.07 1.345-1.107 1.824-.988 3.59-1.466 1.366-.37 2.641-.5 3.825-.39 1.2.087 2.27.492 3.214 1.214.94.704 2.198 2.23 2.835 3.642.653 1.387 1.146 2.274 2.108 5.204.963 2.93 1.65 12.076 1.65 12.076-.52 2.421-.943 3.233-2.454 6.933l-5.989 1.62s.068-9.6-.489-12.825c-.557-3.226-1.511-6.73-1.511-6.73-.28-.89-.848-1.419-1.125-1.95-.258-.536-.592-.925-1-1.167-.391-.246-.858-.354-1.401-.325-.527.006-1.119.098-1.775.275-.983.266-1.777.686-2.38 1.26a5.748 5.748 0 0 0-1.347 2.036s2.462 6.988 2.55 11.183c.09 4.195.282 10.46.282 10.46l-9.207 2.49s.437-4.723-.14-12.686c-.576-7.962-3.87-17.966-3.87-17.966z" aria-label="n" font-family="Roboto" font-size="57.97445679px" font-weight="400" letter-spacing="0" style="-inkscape-font-specification:Roboto" text-anchor="middle" word-spacing="0"/></g></g><g transform="translate(-111.737 -176.023)"><path fill="#388e3c" fill-rule="evenodd" stroke="#000" stroke-linejoin="round" stroke-width="2" d="M198.79 380.429c.258-2.631 4.098-13.37 31.374-.952 87.587 39.873 172.374 28.761 238.086 1.513-35.446 31.74-105.09 70.96-151.5 82.622-33.173-.25-69.22-8.332-91.922-33.79-10.377-11.637-27.083-38.739-26.038-49.393z"/><ellipse cx="280.87637" cy="474.38382" fill="#1b5e2f" fill-opacity=".94117647" rx="83.288368" ry="22.619684" transform="matrix(.9852 -.1714 .13103 .99138 0 0)"/></g><g stroke="#000" transform="translate(-111.737 -176.023)"><path fill="#8ed4fe" fill-rule="evenodd" stroke-linecap="round" stroke-width="2.36734128" d="M369.51 223.971c8.7-7.655 16.286-10.658 23.079-7.257 4.975 2.49 3.88 9.206.186 14.35-4.404 6.131-8.49 9.32-8.744 9.31"/><path fill-rule="evenodd" stroke-width=".39455688px" d="M377.176 235.834c.04.824 4.25 3.422 5.457 3.096 1.767-.477 8.642-9.057 8.6-10.83-.114-4.972-14.082 7.2-14.057 7.734z"/><path fill="#8ed4fd" stroke-linecap="round" stroke-linejoin="bevel" stroke-width="2" d="M388.092 315.25c1.496-1.405 4.867-1.942 7.212-3.04 4.645-2.175 7.611-5.532 6.625-7.496-.985-1.965-5.55-1.794-10.195.382-2.244 1.052-4.386 1.93-6.409 2.138"/><path fill="#8ed4fd" fill-rule="evenodd" stroke-width="4" d="M298.548 433.973c-13.22-2.143-19.679-12.58-26.607-23.445-39.8-62.416-31.281-150.252-11.383-173.744 28.95-34.182 95.759-33.51 125.692 5.328 23.506 26.833-1.187 59.973-.604 88.64 42.218 17.603 36.354 74.36 36.354 74.36s-29.164-3.515-46.414.485c-13.469 3.124-29.732 10.114-48.81 19.564-9.17 4.542-16.54 10.707-28.228 8.812z"/><path fill="#8ed4fd" stroke-linecap="round" stroke-linejoin="bevel" stroke-width="4" d="M250.55 329.788c-2.015 1.902-6.565 2.64-9.73 4.129-6.264 2.955-10.258 7.499-8.92 10.148 1.339 2.65 7.503 2.403 13.769-.553 3.025-1.428 5.915-2.621 8.646-2.91"/><path fill="none" stroke-width="1px" d="M391.384 334.295c-9.823-5.145-22.274-2.475-22.274-2.475"/><path fill="#8ed4fd" stroke-linecap="round" stroke-linejoin="bevel" stroke-width="4" d="M286.83 422.587c6.996 10.92 1.841 23.67 8.24 25.193 5.237 1.246 10.83-11.015 16.597-20.235"/><circle cx="312.05698" cy="259.30524" r="33.4146" fill="#fff" stroke-linecap="round" stroke-linejoin="round" stroke-width="3"/><ellipse cx="383.2565" cy="275.77502" fill="#fff" stroke-linecap="round" stroke-linejoin="round" stroke-width="2.80603194" rx="23.076626" ry="24.170307"/><g transform="translate(4.328 .457)"><path fill="#fff" fill-rule="evenodd" stroke-width="2.56399131" d="M335.728 298.82c-1.108 3.632-.698 12.213-.698 12.213l10.475 3.152s4.853-5.714 5.444-7.781c.592-2.068.338-3.207.338-3.207z"/><path fill="#d3b78d" fill-rule="evenodd" stroke-width="2.56399131" d="M327.716 292.849c-7.616 7.896 4.591 8.084 14.163 10.196 7.577 1.67 16.83 10.159 19.098 2.508 3.92-13.223-23.494-22.831-33.261-12.704z"/><ellipse cx="420.1701" cy="-167.76379" stroke-linecap="round" stroke-linejoin="bevel" stroke-width="1.92299342" rx="11.350795" ry="6.4980431" transform="scale(1 -1) rotate(-18.249)"/></g><circle cx="324.33755" cy="267.0163" r="8.8534412" stroke-linecap="round" stroke-linejoin="round" stroke-width="2.28475904"/><circle cx="392.33401" cy="283.75888" r="6.7808099" stroke-linecap="round" stroke-linejoin="round" stroke-width="1.74988639"/><path fill="#8ed4fe" fill-rule="evenodd" stroke-linecap="round" stroke-width="2.91332936" d="M278.198 228.795c-3.902-10.61-2.26-20.229 2.508-28.163 3.346-5.568 7.803-6.188 11.596-4.822 6.332 2.281 9.116 9.465 12.68 20.664"/><path fill-rule="evenodd" stroke-width=".4855549px" d="M288.665 223.718c.788.64 5.95-1.759 7.315-2.47 2.72-1.417.131-13.619-2.11-15.238-4.96-3.583-5.716 17.294-5.205 17.708z"/></g><path fill="#4caf50" fill-rule="evenodd" stroke="#000" stroke-linejoin="round" stroke-width="2" d="M87.769 202.692c-3.004 5.856-4.34 9.43-3.463 28.282 21.668 47.77 122.45 97.486 235.386 8.58 16.786-13.215 43.014-41.158 70.714-46.43 20.44-3.89 35.552 12.638 35.552 12.638l-9.17-19.116c-10.612-21.217-55.798-16.392-82.11 2.943-35.087 25.784-70.3 86.104-142.843 83.535-79.714-2.822-108.82-63.392-104.066-70.432z"/></svg>